<svg height="465pt" viewBox="-52 0 465 465.352" width="465pt" xmlns="http://www.w3.org/2000/svg"><path d="m244.691406 281.5-187.832031 157.609375c-5.328125 4.472656-6.023437 12.417969-1.554687 17.75 4.476562 5.332031 12.421874 6.027344 17.753906 1.554687l210.835937-176.910156h-39.203125zm0 0" fill="#a4c9ff"/><path d="m64.972656 465.351562c-4.742187 0-9.453125-2.015624-12.730468-5.921874-2.851563-3.394532-4.207032-7.699219-3.820313-12.117188s2.46875-8.421875 5.867187-11.269531l187.828126-157.609375c.722656-.605469 1.628906-.9375 2.574218-.9375h39.203125c1.679688 0 3.183594 1.054687 3.757813 2.632812.574218 1.582032.101562 3.351563-1.1875 4.433594l-210.835938 176.914062c-3.105468 2.605469-6.890625 3.875-10.65625 3.875zm181.171875-179.851562-186.710937 156.671875c-1.761719 1.476563-2.839844 3.550781-3.042969 5.839844-.199219 2.285156.503906 4.515625 1.980469 6.277343 3.050781 3.632813 8.484375 4.109376 12.117187 1.058594l202.414063-169.847656zm0 0" fill="#3762cc"/><path d="m68.976562 238h-25.199218v-221.398438c0-6.960937 5.640625-12.601562 12.597656-12.601562 6.960938 0 12.601562 5.640625 12.601562 12.601562zm0 0" fill="#a4c9ff"/><path d="m68.976562 242h-25.199218c-2.210938 0-4-1.792969-4-4v-221.398438c0-9.15625 7.445312-16.601562 16.597656-16.601562s16.601562 7.445312 16.601562 16.601562v221.398438c0 2.210938-1.792968 4-4 4zm-21.199218-8h17.199218v-217.398438c0-4.742187-3.859374-8.601562-8.601562-8.601562s-8.597656 3.859375-8.597656 8.601562zm0 0" fill="#3762cc"/><path d="m316.980469 238h-25.199219v-221.398438c0-6.960937 5.640625-12.601562 12.597656-12.601562 6.960938 0 12.601563 5.640625 12.601563 12.601562zm0 0" fill="#a4c9ff"/><path d="m316.980469 242h-25.199219c-2.210938 0-4-1.792969-4-4v-221.398438c0-9.15625 7.445312-16.601562 16.597656-16.601562 9.15625 0 16.601563 7.445312 16.601563 16.601562v221.398438c0 2.210938-1.789063 4-4 4zm-21.199219-8h17.199219v-217.398438c0-4.742187-3.859375-8.601562-8.601563-8.601562-4.742187 0-8.597656 3.859375-8.597656 8.601562zm0 0" fill="#3762cc"/><path d="m291.78125 173.800781v-149.402343c-118.367188-28.796876-222.804688 0-222.804688 0v149.402343zm0 0" fill="#6bdddd"/><path d="m291.78125 173.800781h25.199219v64.199219h-25.199219zm0 0" fill="#e0ebfc"/><path d="m291.78125 199v-25.199219h52.199219c6.957031 0 12.597656 5.640625 12.597656 12.597657 0 6.960937-5.640625 12.601562-12.597656 12.601562zm0 0" fill="#e0ebfc"/><path d="m68.976562 238h-25.199218v-64.199219h25.199218zm0 0" fill="#e0ebfc"/><path d="m68.976562 199v-25.199219h-52.199218c-6.960938 0-12.601563 5.640625-12.601563 12.597657 0 6.960937 5.640625 12.601562 12.601563 12.601562zm0 0" fill="#e0ebfc"/><path d="m180.378906 238h-144.410156c-7.726562 0-13.992188 6.265625-13.992188 13.992188 0 4.824218 2.488282 9.308593 6.578126 11.867187l24.832031 15.515625c2.226562 1.390625 4.792969 2.125 7.414062 2.125h239.152344c2.621094 0 5.1875-.734375 7.414063-2.125l24.832031-15.515625c4.089843-2.554687 6.578125-7.042969 6.578125-11.867187 0-7.726563-6.265625-13.992188-13.992188-13.992188zm0 0" fill="#6bdddd"/><path d="m76.863281 281.5 210.835938 176.910156c5.328125 4.476563 13.277343 3.78125 17.75-1.550781 4.476562-5.332031 3.777343-13.28125-1.554688-17.753906l-187.828125-157.605469zm0 0" fill="#a4c9ff"/><g fill="#3762cc"><path d="m291.78125 177.800781h-222.804688c-2.207031 0-4-1.792969-4-4v-149.402343c0-1.796876 1.203126-3.375 2.933594-3.855469 1.054688-.289063 106.808594-28.742188 224.816406-.027344 1.792969.433594 3.054688 2.039063 3.054688 3.882813v149.402343c0 2.210938-1.792969 4-4 4zm-218.804688-8h214.804688v-142.246093c-103.890625-24.441407-197.269531-4.292969-214.804688-.039063zm0 0"/><path d="m316.980469 242h-25.199219c-2.210938 0-4-1.792969-4-4v-64.199219c0-2.207031 1.789062-4 4-4h52.199219c9.152343 0 16.597656 7.445313 16.597656 16.597657 0 9.15625-7.445313 16.601562-16.597656 16.601562h-23v35c0 2.207031-1.789063 4-4 4zm-21.199219-8h17.199219v-35c0-2.207031 1.792969-4 4-4h27c4.742187 0 8.597656-3.859375 8.597656-8.601562 0-4.742188-3.855469-8.597657-8.597656-8.597657h-48.199219zm0 0"/><path d="m68.976562 242h-25.199218c-2.210938 0-4-1.792969-4-4v-35h-23c-9.15625 0-16.601563-7.449219-16.601563-16.601562 0-9.152344 7.445313-16.597657 16.601563-16.597657h52.199218c2.207032 0 4 1.792969 4 4v64.199219c0 2.210938-1.792968 4-4 4zm-21.199218-8h17.199218v-56.199219h-48.199218c-4.742188 0-8.601563 3.855469-8.601563 8.597657 0 4.742187 3.859375 8.601562 8.601563 8.601562h27c2.207031 0 4 1.792969 4 4zm0 0"/><path d="m299.953125 285.5h-239.152344c-3.371093 0-6.667969-.945312-9.53125-2.734375l-24.832031-15.511719c-5.300781-3.3125-8.460938-9.015625-8.460938-15.261718 0-9.921876 8.070313-17.996094 17.992188-17.996094h288.816406c9.921875 0 17.992188 8.074218 17.992188 17.996094 0 6.246093-3.160156 11.949218-8.460938 15.261718l-24.832031 15.511719c-2.859375 1.789063-6.160156 2.734375-9.53125 2.734375zm-263.984375-43.5c-5.507812 0-9.992188 4.484375-9.992188 9.992188 0 3.46875 1.753907 6.636718 4.699219 8.476562l24.832031 15.511719c1.589844.996093 3.421876 1.519531 5.292969 1.519531h239.148438c1.875 0 3.703125-.527344 5.292969-1.519531l24.832031-15.511719c2.945312-1.839844 4.699219-5.007812 4.699219-8.476562 0-5.507813-4.480469-9.992188-9.992188-9.992188zm0 0"/><path d="m295.785156 465.351562c-3.765625 0-7.554687-1.273437-10.660156-3.875l-210.832031-176.914062c-1.289063-1.082031-1.761719-2.851562-1.1875-4.429688.574219-1.582031 2.078125-2.632812 3.757812-2.632812h39.203125c.941406 0 1.847656.332031 2.570313.9375l187.832031 157.605469c3.394531 2.851562 5.480469 6.851562 5.867188 11.269531.382812 4.417969-.972657 8.722656-3.820313 12.121094-3.28125 3.90625-7.992187 5.917968-12.730469 5.917968zm-207.933594-179.851562 202.417969 169.847656c3.628907 3.046875 9.066407 2.574219 12.113281-1.058594 1.480469-1.761718 2.179688-3.992187 1.980469-6.277343-.199219-2.289063-1.277343-4.363281-3.039062-5.839844l-186.714844-156.671875zm0 0"/></g></svg>