<svg id="Layer_1" enable-background="new 0 0 256 256" height="512" viewBox="0 0 256 256" width="512" xmlns="http://www.w3.org/2000/svg"><g><g><path d="m190.667 30.621h-125.334v-20.667c0-2.761 2.239-5 5-5h115.333c2.761 0 5 2.239 5 5v20.667z" fill="#ffcfcf"/><path d="m65.333 30.621v215.425c0 2.761 2.239 5 5 5h31.171c2.523 0 4.651-1.88 4.962-4.384l21.534-173.52v-42.521z" fill="#ffe2e2"/><path d="m190.667 30.621v215.425c0 2.761-2.239 5-5 5h-31.171c-2.523 0-4.651-1.88-4.962-4.384l-21.534-173.52v-42.521z" fill="#ffe2e2"/><path d="m85.33 251.05h-15c-2.76 0-5-2.24-5-5v-215.43h15v215.43c0 2.76 2.24 5 5 5z" fill="#ffefee"/><path d="m190.67 30.62v215.43c0 2.76-2.24 5-5 5h-15c2.76 0 5-2.24 5-5v-215.43z" fill="#ffcfcf"/></g><g fill="#5f266d"><path d="m185.667.954h-115.334c-4.963 0-9 4.037-9 9v236.092c0 4.963 4.037 9 9 9h31.171c4.532 0 8.373-3.393 8.933-7.893l17.563-141.53 17.563 141.532c.56 4.498 4.4 7.891 8.933 7.891h31.171c4.963 0 9-4.037 9-9 0-11.302 0-227.261 0-236.092 0-4.963-4.037-9-9-9zm-61.667 71.941-21.503 173.272c-.062.501-.489.879-.993.879h-31.171c-.552 0-1-.448-1-1v-211.425h54.667zm62.667 173.151c0 .552-.448 1-1 1h-31.171c-.504 0-.932-.378-.993-.877l-21.503-173.274v-38.274h54.667zm0-219.425c-33.954 0-83.382 0-117.334 0v-16.667c0-.552.448-1 1-1h115.334c.552 0 1 .448 1 1z"/><path d="m173.938 87.198c2.209 0 4-1.791 4-4v-3.313c0-2.209-1.791-4-4-4s-4 1.791-4 4v3.313c0 2.209 1.791 4 4 4z"/><path d="m173.938 68.886c2.209 0 4-1.791 4-4v-16c0-2.209-1.791-4-4-4s-4 1.791-4 4v16c0 2.209 1.791 4 4 4z"/></g></g></svg>