<svg height="512" viewBox="0 0 256 256" width="512" xmlns="http://www.w3.org/2000/svg"><path d="m245.084 177.417a369.861 369.861 0 0 0 -14.908-78.817l-9.089-29.846c-7.387-24.254-27.45-45.067-52.287-50.162h-81.6c-24.84 5.1-44.9 25.9-52.29 50.16l-9.086 29.848a369.861 369.861 0 0 0 -14.908 78.819l-2.885 36.786h27.683l19.475-69.58 4.416 61.394a11.922 11.922 0 0 0 11.895 11.066h113a11.922 11.922 0 0 0 11.9-11.066l4.416-61.394 19.475 69.58h27.683z" fill="#526faa"/><path d="m33.824 98.6 9.089-29.846c7.387-24.254 27.45-45.067 52.287-50.162h-8c-24.84 5.1-44.9 25.9-52.29 50.16l-9.086 29.848a369.861 369.861 0 0 0 -14.908 78.819l-2.885 36.786h8l2.885-36.788a369.861 369.861 0 0 1 14.908-78.817z" fill="#708dc8"/><path d="m128 84.71-33.278-45.864h-18.945l11.426-20.254h17.878z" fill="#f4efed"/><rect fill="#f4efed" height="23.203" rx="3.576" width="36.57" x="4" y="214.205"/><path d="m128 217.085v19.4h-51.091a5.961 5.961 0 0 1 -5.961-5.961v-13.439z" fill="#f4efed"/><path d="m12 233.832v-16.051a3.576 3.576 0 0 1 3.576-3.576h-8a3.576 3.576 0 0 0 -3.576 3.576v16.051a3.576 3.576 0 0 0 3.576 3.576h8a3.576 3.576 0 0 1 -3.576-3.576z" fill="#fff"/><g fill="#690589"><path d="m31.64 112.6a2.029 2.029 0 0 1 -.5-.064 2 2 0 0 1 -1.44-2.436c1.043-4.022 2.189-8.087 3.4-12.081a2 2 0 0 1 3.827 1.165c-1.2 3.942-2.33 7.952-3.36 11.92a2 2 0 0 1 -1.927 1.496z"/><path d="m55.19 146.626a2 2 0 0 1 -1.927-2.54c12.394-44.286-1.711-104.171-1.855-104.771a2 2 0 0 1 3.734-1.363c.2.41 14.738 61.6 1.972 107.212a2 2 0 0 1 -1.924 1.462z"/><path d="m128 238.484h-51.092a7.97 7.97 0 0 1 -7.96-7.96v-13.439a2 2 0 0 1 2-2h57.052a2 2 0 0 1 2 2v19.4a2 2 0 0 1 -2 1.999zm-55.052-19.4v11.439a3.965 3.965 0 0 0 3.96 3.96h49.092v-15.4z"/><path d="m36.993 239.408h-29.417a5.582 5.582 0 0 1 -5.576-5.576v-16.05a5.583 5.583 0 0 1 5.576-5.577h29.417a5.583 5.583 0 0 1 5.576 5.577v16.05a5.582 5.582 0 0 1 -5.576 5.576zm-29.417-23.2a1.579 1.579 0 0 0 -1.576 1.574v16.05a1.578 1.578 0 0 0 1.576 1.576h29.417a1.578 1.578 0 0 0 1.576-1.576v-16.05a1.579 1.579 0 0 0 -1.576-1.577z"/><path d="m75.776 203.869a2 2 0 0 1 -1.819-2.83l16.281-35.713a2 2 0 1 1 3.639 1.659l-16.277 35.715a2 2 0 0 1 -1.824 1.169z"/></g><path d="m73.814 96.516h54.186v18.082h-54.186z" fill="#ff4397"/><path d="m73.814 114.598h54.186v18.082h-54.186z" fill="#fcc24c"/><path d="m73.814 132.68h54.186v18.082h-54.186z" fill="#f4efed"/><path d="m128 116.6h-54.186a2 2 0 0 1 -2-2v-18.083a2 2 0 0 1 2-2h54.186a2 2 0 0 1 2 2v18.083a2 2 0 0 1 -2 2zm-52.186-4h50.186v-14.083h-50.186z" fill="#690589"/><path d="m128 134.68h-54.186a2 2 0 0 1 -2-2v-18.08a2 2 0 0 1 2-2h54.186a2 2 0 0 1 2 2v18.08a2 2 0 0 1 -2 2zm-52.186-4h50.186v-14.08h-50.186z" fill="#690589"/><path d="m128 152.762h-54.186a2 2 0 0 1 -2-2v-18.082a2 2 0 0 1 2-2h54.186a2 2 0 0 1 2 2v18.082a2 2 0 0 1 -2 2zm-52.186-4h50.186v-14.082h-50.186z" fill="#690589"/><path d="m128 86.709a2 2 0 0 1 -1.62-.825l-32.68-45.038h-17.923a2 2 0 0 1 -1.742-2.982l11.425-20.255a2 2 0 0 1 1.74-1.017h17.88a2 2 0 0 1 1.89 1.344l22.92 66.118a2 2 0 0 1 -1.89 2.655zm-48.8-49.863h15.523a2 2 0 0 1 1.619.826l25.344 34.928-18.03-52.01h-15.286z" fill="#690589"/><path d="m222.176 98.6-9.089-29.846c-7.387-24.254-27.45-45.067-52.287-50.162h8c24.84 5.1 44.9 25.9 52.29 50.16l9.086 29.848a369.861 369.861 0 0 1 14.908 78.819l2.885 36.788h-8l-2.885-36.788a369.861 369.861 0 0 0 -14.908-78.819z" fill="#34518c"/><path d="m128 84.71 33.278-45.864h18.945l-11.426-20.254h-17.878z" fill="#f4efed"/><rect fill="#f4efed" height="23.203" rx="3.576" transform="matrix(-1 0 0 -1 467.43 451.614)" width="36.57" x="215.43" y="214.205"/><path d="m128 217.085v19.4h51.091a5.961 5.961 0 0 0 5.961-5.961v-13.439z" fill="#f4efed"/><path d="m244 233.832v-16.051a3.576 3.576 0 0 0 -3.576-3.576h8a3.576 3.576 0 0 1 3.576 3.576v16.051a3.576 3.576 0 0 1 -3.576 3.576h-8a3.576 3.576 0 0 0 3.576-3.576z" fill="#d6d1cf"/><path d="m200.81 146.626a2 2 0 0 1 -1.924-1.462c-12.766-45.608 1.767-106.8 1.972-107.212a2 2 0 0 1 3.734 1.363c-.144.6-14.249 60.488-1.855 104.771a2 2 0 0 1 -1.927 2.54z" fill="#690589"/><path d="m179.092 238.484h-51.092a2 2 0 0 1 -2-2v-19.4a2 2 0 0 1 2-2h57.052a2 2 0 0 1 2 2v13.439a7.97 7.97 0 0 1 -7.96 7.961zm-49.092-4h49.092a3.965 3.965 0 0 0 3.96-3.96v-11.439h-53.052z" fill="#690589"/><path d="m248.424 239.408h-29.417a5.582 5.582 0 0 1 -5.576-5.576v-16.051a5.582 5.582 0 0 1 5.576-5.576h29.417a5.582 5.582 0 0 1 5.576 5.576v16.051a5.582 5.582 0 0 1 -5.576 5.576zm-29.417-23.2a1.578 1.578 0 0 0 -1.576 1.576v16.051a1.578 1.578 0 0 0 1.576 1.576h29.417a1.578 1.578 0 0 0 1.576-1.579v-16.051a1.578 1.578 0 0 0 -1.576-1.576z" fill="#690589"/><path d="m180.224 203.869a2 2 0 0 1 -1.824-1.169l-16.279-35.713a2 2 0 1 1 3.639-1.659l16.281 35.713a2 2 0 0 1 -1.819 2.83z" fill="#690589"/><path d="m184.5 219.085h-113a13.972 13.972 0 0 1 -13.89-12.922l-3.592-49.936-16.377 58.517a2 2 0 0 1 -1.926 1.461h-27.685a2 2 0 0 1 -1.994-2.156l2.886-36.788a372.4 372.4 0 0 1 14.989-79.245l9.089-29.846c7.991-26.243 29.109-46.47 53.8-51.537a1.945 1.945 0 0 1 .4-.041h81.6a1.945 1.945 0 0 1 .4.041c24.691 5.067 45.809 25.294 53.8 51.537l9.089 29.846a372.4 372.4 0 0 1 14.989 79.245l2.886 36.788a2 2 0 0 1 -1.994 2.156h-27.685a2 2 0 0 1 -1.926-1.461l-16.377-58.517-3.592 49.936a13.972 13.972 0 0 1 -13.89 12.922zm-129.312-76.46a2 2 0 0 1 2 1.856l4.417 61.4a9.956 9.956 0 0 0 9.895 9.209h113a9.956 9.956 0 0 0 9.9-9.209l4.417-61.4a2 2 0 0 1 3.921-.395l19.062 68.119h24l-2.717-34.631a368.4 368.4 0 0 0 -14.827-78.393l-9.089-29.846c-7.433-24.408-27.743-43.97-50.581-48.743h-81.179c-22.838 4.773-43.148 24.335-50.581 48.743l-9.089 29.846a368.4 368.4 0 0 0 -14.827 78.393l-2.717 34.631h24l19.066-68.119a2 2 0 0 1 1.929-1.461z" fill="#690589"/><path d="m128 96.516h54.186v18.082h-54.186z" fill="#ff4397" transform="matrix(-1 0 0 -1 310.186 211.115)"/><path d="m128 114.598h54.186v18.082h-54.186z" fill="#fcc24c" transform="matrix(-1 0 0 -1 310.186 247.279)"/><path d="m128 132.68h54.186v18.082h-54.186z" fill="#f4efed" transform="matrix(-1 0 0 -1 310.186 283.443)"/><path d="m182.186 116.6h-54.186a2 2 0 0 1 -2-2v-18.083a2 2 0 0 1 2-2h54.186a2 2 0 0 1 2 2v18.083a2 2 0 0 1 -2 2zm-52.186-4h50.186v-14.083h-50.186z" fill="#690589"/><path d="m182.186 134.68h-54.186a2 2 0 0 1 -2-2v-18.08a2 2 0 0 1 2-2h54.186a2 2 0 0 1 2 2v18.08a2 2 0 0 1 -2 2zm-52.186-4h50.186v-14.08h-50.186z" fill="#690589"/><path d="m182.186 152.762h-54.186a2 2 0 0 1 -2-2v-18.082a2 2 0 0 1 2-2h54.186a2 2 0 0 1 2 2v18.082a2 2 0 0 1 -2 2zm-52.186-4h50.186v-14.082h-50.186z" fill="#690589"/><path d="m128 86.709a2 2 0 0 1 -1.889-2.655l22.92-66.118a2 2 0 0 1 1.89-1.344h17.879a2 2 0 0 1 1.742 1.017l11.425 20.255a2 2 0 0 1 -1.742 2.982h-17.925l-32.681 45.038a2 2 0 0 1 -1.619.825zm24.345-66.117-18.031 52.008 25.344-34.93a2 2 0 0 1 1.619-.826h15.523l-9.17-16.252z" fill="#690589"/><path d="m128 219.085a2 2 0 0 1 -2-2v-132.376a2 2 0 0 1 4 0v132.376a2 2 0 0 1 -2 2z" fill="#690589"/></svg>